<svg xmlns="http://www.w3.org/2000/svg" viewBox="0 0 108 108" width="512" height="512">
<path d="M0,0 L108,0 L108,108 L0,108 Z" fill="#00695C"/>
<!-- Ukulele silhouette: figure-8 body + neck + headstock -->
<path d="M54,94 C74,94 76,80 74,72 C72,64 66,60 64,58 C62,55 70,48 68,44 C66,40 62,37 59,36 L59,18 L62,18 L62,12 C62,8 58,7 54,7 C50,7 46,8 46,12 L46,18 L49,18 L49,36 C46,37 42,40 40,44 C38,48 46,55 44,58 C42,60 36,64 34,72 C32,80 34,94 54,94 Z" fill="#FFFFFF"/>
<!-- Sound hole -->
<circle cx="54" cy="73" r="6" fill="#00695C"/>
<!-- Bridge -->
<rect x="49" y="83" width="10" height="1.5" rx="0.5" fill="#00695C"/>
<!-- Strings (4) -->
<line x1="51" y1="18" x2="51" y2="83" stroke="#00695C" stroke-width="0.6"/>
<line x1="53" y1="18" x2="53" y2="83" stroke="#00695C" stroke-width="0.6"/>
<line x1="55" y1="18" x2="55" y2="83" stroke="#00695C" stroke-width="0.6"/>
<line x1="57" y1="18" x2="57" y2="83" stroke="#00695C" stroke-width="0.6"/>
<!-- Tuning pegs (2 per side) -->
<circle cx="43" cy="11" r="2" fill="#00695C"/>
<circle cx="43" cy="16" r="2" fill="#00695C"/>
<circle cx="65" cy="11" r="2" fill="#00695C"/>
<circle cx="65" cy="16" r="2" fill="#00695C"/>
<!-- Fret dots (accent) -->
<circle cx="52" cy="25" r="1.5" fill="#FF7043"/>
<circle cx="56" cy="30" r="1.5" fill="#FF7043"/>
</svg>
